<svg width="220" height="220" viewBox="0 0 220 220" fill="none" xmlns="http://www.w3.org/2000/svg">
<g clip-path="url(#clip0_5711_1361)">
<path d="M111.176 194.796C171.472 194.796 220.352 182.608 220.352 167.574C220.352 152.539 171.472 140.352 111.176 140.352C50.8798 140.352 2 152.539 2 167.574C2 182.608 50.8798 194.796 111.176 194.796Z" fill="url(#paint0_linear_5711_1361)"/>
<path d="M27.2148 14.453C27.2148 6.471 33.6858 0 41.6678 0H139.169C147.151 0 153.622 6.471 153.622 14.453V143.847C153.622 151.829 147.151 158.3 139.169 158.3H41.6678C33.6858 158.3 27.2148 151.83 27.2148 143.847V14.453Z" fill="url(#paint1_linear_5711_1361)"/>
<path d="M117.715 7.21289H63.1211V11.8379H117.715V7.21289Z" fill="#2443AF"/>
<path d="M149.57 130.279H38.4277V120.877H149.57V130.279ZM76.1717 27.8259V34.4729H86.2617V27.8259H76.1717ZM59.4547 22.7539H102.978V65.2199H84.6617V75.1969H59.4547V22.7539ZM107.582 73.0509V79.6979H117.672V73.0509H107.582ZM88.1437 68.4159H137.109V113.356H88.1437V68.4159ZM59.0677 83.2259V89.8729H69.1577V83.2259H59.0677ZM43.7317 78.9429H84.4937V113.356H43.7317V78.9429ZM113.83 43.3429V49.9899H123.92V43.3429H113.83ZM106.081 38.3999H131.669V65.2189H106.081V38.3999ZM51.3327 141.975C51.3327 138.002 54.5537 134.781 58.5267 134.781C62.4997 134.781 65.7197 138.002 65.7197 141.975C65.7197 145.949 62.4987 149.169 58.5267 149.169C54.5537 149.169 51.3327 145.949 51.3327 141.975Z" fill="#82E3EC"/>
<path d="M195.067 112.999V161.66C195.067 168.34 189.652 173.754 182.972 173.754H128.851C122.171 173.754 116.756 168.339 116.756 161.66V102.571C116.756 95.8906 122.171 90.4766 128.851 90.4766H172.909V113L195.067 112.999Z" fill="url(#paint2_linear_5711_1361)"/>
<path fill-rule="evenodd" clip-rule="evenodd" d="M175.642 91.0469C182.148 97.5919 188.455 103.937 194.837 110.357C194.306 110.383 193.742 110.434 193.18 110.435C187.911 110.441 182.644 110.404 177.376 110.464C176.119 110.478 175.586 110.256 175.606 108.819C175.69 102.968 175.642 97.1149 175.642 91.0469Z" fill="#2AB26B"/>
<path d="M116.756 140.387C148.209 140.782 176.152 144.495 195.068 150.152V161.658C195.068 168.338 189.653 173.752 182.973 173.752H128.851C122.171 173.752 116.756 168.337 116.756 161.658V140.387Z" fill="url(#paint3_linear_5711_1361)"/>
<path d="M130.148 135.587H153.803V141.657H130.148V135.587ZM159.246 147.778H179.763V153.848H159.246V147.778ZM159.246 124.034H179.763V130.104H159.246V124.034ZM159.246 135.587H179.763V141.657H159.246V135.587ZM146.123 130.104L141.87 123.862L137.617 130.104H130.148L138.135 118.382L130.148 106.66H137.616L141.87 112.902L146.123 106.66H153.592L145.604 118.382L153.592 130.104H146.123ZM130.148 147.778H153.803V153.848H130.148V147.778Z" fill="#FEFEFE"/>
</g>
<defs>
<linearGradient id="paint0_linear_5711_1361" x1="2" y1="167.574" x2="220.351" y2="167.574" gradientUnits="userSpaceOnUse">
<stop stop-color="#00F59F"/>
<stop offset="1" stop-color="#4DD8DB"/>
</linearGradient>
<linearGradient id="paint1_linear_5711_1361" x1="32.9099" y1="99.7978" x2="151.881" y2="57.0805" gradientUnits="userSpaceOnUse">
<stop stop-color="#1B2BBB"/>
<stop offset="0.6487" stop-color="#1A79D6"/>
<stop offset="0.9677" stop-color="#1A9BE2"/>
</linearGradient>
<linearGradient id="paint2_linear_5711_1361" x1="116.756" y1="132.114" x2="195.067" y2="132.114" gradientUnits="userSpaceOnUse">
<stop stop-color="#2AB26B"/>
<stop offset="1" stop-color="#13EDAD"/>
</linearGradient>
<linearGradient id="paint3_linear_5711_1361" x1="120.108" y1="147.561" x2="215.724" y2="181.277" gradientUnits="userSpaceOnUse">
<stop stop-color="#2AB26B"/>
<stop offset="1" stop-color="#07F2A3"/>
</linearGradient>
<clipPath id="clip0_5711_1361">
<rect width="220" height="220" fill="white"/>
</clipPath>
</defs>
</svg>
