<svg width="279" height="240" viewBox="0 0 279 240" fill="none" xmlns="http://www.w3.org/2000/svg">
<path d="M142.636 212.965C202.932 212.965 251.812 200.777 251.812 185.743C251.812 170.709 202.932 158.521 142.636 158.521C82.3397 158.521 33.46 170.709 33.46 185.743C33.46 200.777 82.3397 212.965 142.636 212.965Z" fill="url(#paint0_linear_6703_12626)"/>
<path d="M58.675 32.6219C58.675 24.6399 65.146 18.1689 73.128 18.1689H170.629C178.611 18.1689 185.082 24.6399 185.082 32.6219V162.016C185.082 169.998 178.611 176.469 170.629 176.469H73.128C65.146 176.469 58.675 169.999 58.675 162.016V32.6219Z" fill="url(#paint1_linear_6703_12626)"/>
<path d="M149.175 25.3818H94.5811V30.0068H149.175V25.3818Z" fill="#2443AF"/>
<path d="M181.03 148.447H69.8879V139.045H181.03V148.447ZM107.632 45.9939V52.6409H117.722V45.9939H107.632ZM90.9149 40.9219H134.438V83.3879H116.122V93.3649H90.9149V40.9219ZM139.042 91.2189V97.8659H149.132V91.2189H139.042ZM119.604 86.5839H168.569V131.524H119.604V86.5839ZM90.5279 101.394V108.041H100.618V101.394H90.5279ZM75.1919 97.1109H115.954V131.524H75.1919V97.1109ZM145.29 61.5109V68.1579H155.38V61.5109H145.29ZM137.541 56.5679H163.129V83.3869H137.541V56.5679ZM82.7929 160.143C82.7929 156.17 86.0139 152.949 89.9869 152.949C93.9599 152.949 97.1799 156.17 97.1799 160.143C97.1799 164.117 93.9589 167.337 89.9869 167.337C86.0139 167.337 82.7929 164.117 82.7929 160.143Z" fill="#82E3EC"/>
<path d="M226.526 131.167V179.828C226.526 186.508 221.111 191.922 214.431 191.922H160.31C153.63 191.922 148.215 186.507 148.215 179.828V120.739C148.215 114.059 153.63 108.645 160.31 108.645H204.368V131.168L226.526 131.167Z" fill="url(#paint2_linear_6703_12626)"/>
<path fill-rule="evenodd" clip-rule="evenodd" d="M207.102 109.215C213.608 115.76 219.915 122.105 226.297 128.525C225.766 128.551 225.202 128.602 224.64 128.603C219.371 128.609 214.104 128.572 208.836 128.632C207.579 128.646 207.046 128.424 207.066 126.987C207.15 121.136 207.102 115.283 207.102 109.215Z" fill="#2AB26B"/>
<path d="M148.215 158.556C179.668 158.951 207.611 162.664 226.527 168.321V179.827C226.527 186.507 221.112 191.921 214.432 191.921H160.31C153.63 191.921 148.215 186.506 148.215 179.827V158.556Z" fill="url(#paint3_linear_6703_12626)"/>
<path d="M161.608 153.757H185.263V159.827H161.608V153.757ZM190.706 165.948H211.223V172.018H190.706V165.948ZM190.706 142.204H211.223V148.274H190.706V142.204ZM190.706 153.757H211.223V159.827H190.706V153.757ZM177.583 148.274L173.33 142.032L169.077 148.274H161.608L169.595 136.552L161.608 124.83H169.076L173.33 131.072L177.583 124.83H185.052L177.064 136.552L185.052 148.274H177.583ZM161.608 165.948H185.263V172.018H161.608V165.948Z" fill="#FEFEFE"/>
<defs>
<linearGradient id="paint0_linear_6703_12626" x1="33.46" y1="185.743" x2="251.811" y2="185.743" gradientUnits="userSpaceOnUse">
<stop stop-color="#00F59F"/>
<stop offset="1" stop-color="#4DD8DB"/>
</linearGradient>
<linearGradient id="paint1_linear_6703_12626" x1="64.3701" y1="117.967" x2="183.341" y2="75.2494" gradientUnits="userSpaceOnUse">
<stop stop-color="#1B2BBB"/>
<stop offset="0.6487" stop-color="#1A79D6"/>
<stop offset="0.9677" stop-color="#1A9BE2"/>
</linearGradient>
<linearGradient id="paint2_linear_6703_12626" x1="148.215" y1="150.282" x2="226.526" y2="150.282" gradientUnits="userSpaceOnUse">
<stop stop-color="#2AB26B"/>
<stop offset="1" stop-color="#13EDAD"/>
</linearGradient>
<linearGradient id="paint3_linear_6703_12626" x1="151.567" y1="165.731" x2="247.183" y2="199.447" gradientUnits="userSpaceOnUse">
<stop stop-color="#2AB26B"/>
<stop offset="1" stop-color="#07F2A3"/>
</linearGradient>
</defs>
</svg>
